<svg id="Circle_Logo" data-name="Circle Logo" xmlns="http://www.w3.org/2000/svg" xmlns:xlink="http://www.w3.org/1999/xlink" width="666.96" height="666.96" viewBox="0 0 666.96 666.96"><defs><style>.cls-1{fill:#9a7b3e;}.cls-2{fill:#dbb267;}.cls-3{fill:url(#linear-gradient);}</style><linearGradient id="linear-gradient" x1="19.91" y1="340.16" x2="635.25" y2="340.16" gradientTransform="translate(82.06 -61.5) rotate(12.11)" gradientUnits="userSpaceOnUse"><stop offset="0" stop-color="#dbb267"/><stop offset="0.17" stop-color="#dcb569"/><stop offset="0.31" stop-color="#e0bf70"/><stop offset="0.43" stop-color="#e6cf7c"/><stop offset="0.5" stop-color="#eadc85"/><stop offset="0.56" stop-color="#e6d17d"/><stop offset="0.69" stop-color="#e0c071"/><stop offset="0.83" stop-color="#dcb569"/><stop offset="1" stop-color="#dbb267"/></linearGradient></defs><title>gears-02-02</title><path class="cls-1" d="M634.52,391.8c-78.39,40.33-148,69.49-248.39,99.33-104.68,31.11-171,40-248.81,51.08C106.45,485.13,55,389.59,55,389.59a26.94,26.94,0,1,1,3.8-3.94c16.9,15.74,46.31,34.81,75.81,14.57,34.42-23.63,34.24-88.39,32.18-118a27,27,0,1,1,7.32-2.08c17.42,20.74,57.63,54.22,97.6,34.95,39.45-19,29.59-104.3,22.92-142.7a27.35,27.35,0,1,1,3.27-.59c20,43.51,69.76,109.32,111.61,102.26,37.16-6.25,47.47-58.88,50.26-82.89a24.66,24.66,0,0,1-4.85-.09,26.94,26.94,0,1,1,11.58-1.24c14.73,25.69,55.86,88.93,99.25,80.25,37.73-7.55,48.25-40,51.15-59a26.35,26.35,0,1,1,4.47.9c-.73-.08-1.45-.19-2.15-.33Z"/><g id="TEST_Group_" data-name="TEST &lt;Group&gt;"><path class="cls-2" d="M634.52,391.8c-192.48-.08-340.45,40.94-497.2,150.41C106.45,485.13,55,389.59,55,389.59a26.94,26.94,0,1,1,3.8-3.94c16.9,15.74,46.31,34.81,75.81,14.57,34.42-23.63,34.24-88.39,32.18-118a27,27,0,1,1,7.32-2.08c17.42,20.74,57.63,54.22,97.6,34.95,39.45-19,29.59-104.3,22.92-142.7a27.35,27.35,0,1,1,3.27-.59c20,43.51,69.76,109.32,111.61,102.26,37.16-6.25,47.47-58.88,50.26-82.89a24.66,24.66,0,0,1-4.85-.09,26.94,26.94,0,1,1,11.58-1.24c14.73,25.69,55.86,88.93,99.25,80.25,37.73-7.55,48.25-40,51.15-59a26.35,26.35,0,1,1,4.47.9c-.73-.08-1.45-.19-2.15-.33Z"/><path class="cls-3" d="M634.52,391.8c-192.48-.08-340.45,40.94-497.2,150.41C106.45,485.13,55,389.59,55,389.59a26.94,26.94,0,1,1,3.8-3.94c16.9,15.74,46.31,34.81,75.81,14.57,34.42-23.63,34.24-88.39,32.18-118a27,27,0,1,1,7.32-2.08c17.42,20.74,57.63,54.22,97.6,34.95,39.45-19,29.59-104.3,22.92-142.7a27.35,27.35,0,1,1,3.27-.59c20,43.51,69.76,109.32,111.61,102.26,37.16-6.25,47.47-58.88,50.26-82.89a24.66,24.66,0,0,1-4.85-.09,26.94,26.94,0,1,1,11.58-1.24c14.73,25.69,55.86,88.93,99.25,80.25,37.73-7.55,48.25-40,51.15-59a26.35,26.35,0,1,1,4.47.9c-.73-.08-1.45-.19-2.15-.33Z"/></g></svg>